<svg width="1510" height="1250" viewBox="0 0 1510 1250" fill="none" xmlns="http://www.w3.org/2000/svg">
  <defs>
    <style>
      .title { font: 800 32px -apple-system, BlinkMacSystemFont, "Inter", "Segoe UI", sans-serif; fill: #F8F8F2; }
      .subtitle { font: 500 15px -apple-system, BlinkMacSystemFont, "Inter", "Segoe UI", sans-serif; fill: #B8B9C8; }
      .label { font: 800 13px -apple-system, BlinkMacSystemFont, "Inter", "Segoe UI", sans-serif; fill: #BD93F9; letter-spacing: .8px; }
      .h1 { font: 800 25px -apple-system, BlinkMacSystemFont, "Inter", "Segoe UI", sans-serif; fill: #F8F8F2; }
      .h2 { font: 800 17px -apple-system, BlinkMacSystemFont, "Inter", "Segoe UI", sans-serif; fill: #F8F8F2; }
      .h3 { font: 750 14px -apple-system, BlinkMacSystemFont, "Inter", "Segoe UI", sans-serif; fill: #F8F8F2; }
      .body { font: 500 13px -apple-system, BlinkMacSystemFont, "Inter", "Segoe UI", sans-serif; fill: #B8B9C8; }
      .small { font: 700 11px -apple-system, BlinkMacSystemFont, "Inter", "Segoe UI", sans-serif; fill: #B8B9C8; }
      .tiny { font: 700 9px -apple-system, BlinkMacSystemFont, "Inter", "Segoe UI", sans-serif; fill: #B8B9C8; }
      .metric { font: 850 24px -apple-system, BlinkMacSystemFont, "Inter", "Segoe UI", sans-serif; fill: #F8F8F2; }
      .icon { stroke: currentColor; stroke-width: 2; stroke-linecap: round; stroke-linejoin: round; fill: none; }
    </style>

    <linearGradient id="artPurple" x1="0" y1="0" x2="1" y2="1">
      <stop offset="0" stop-color="#BD93F9"/>
      <stop offset="0.52" stop-color="#FF79C6"/>
      <stop offset="1" stop-color="#282A36"/>
    </linearGradient>
    <linearGradient id="artCyan" x1="0" y1="0" x2="1" y2="1">
      <stop offset="0" stop-color="#8BE9FD"/>
      <stop offset="0.55" stop-color="#50FA7B"/>
      <stop offset="1" stop-color="#282A36"/>
    </linearGradient>
    <linearGradient id="artRed" x1="0" y1="0" x2="1" y2="1">
      <stop offset="0" stop-color="#FF5555"/>
      <stop offset="0.55" stop-color="#F1FA8C"/>
      <stop offset="1" stop-color="#282A36"/>
    </linearGradient>

    <symbol id="i-search" viewBox="0 0 24 24">
      <path class="icon" d="M10.5 18a7.5 7.5 0 1 1 5.3-12.8A7.5 7.5 0 0 1 10.5 18Z"/>
      <path class="icon" d="m16 16 4 4"/>
    </symbol>
    <symbol id="i-bell" viewBox="0 0 24 24">
      <path class="icon" d="M18 8a6 6 0 0 0-12 0c0 7-3 7-3 9h18c0-2-3-2-3-9"/>
      <path class="icon" d="M10 21h4"/>
    </symbol>
    <symbol id="i-book" viewBox="0 0 24 24">
      <path class="icon" d="M5 4h10a4 4 0 0 1 4 4v12H8a3 3 0 0 1-3-3V4Z"/>
      <path class="icon" d="M8 16h11"/>
      <path class="icon" d="M8 4v12"/>
    </symbol>
    <symbol id="i-cards" viewBox="0 0 24 24">
      <rect class="icon" x="7" y="3" width="10" height="14" rx="2"/>
      <path class="icon" d="M5 7 3.5 18.5A2 2 0 0 0 5.5 21H15"/>
    </symbol>
    <symbol id="i-scan" viewBox="0 0 24 24">
      <path class="icon" d="M4 8V5a1 1 0 0 1 1-1h3"/>
      <path class="icon" d="M16 4h3a1 1 0 0 1 1 1v3"/>
      <path class="icon" d="M20 16v3a1 1 0 0 1-1 1h-3"/>
      <path class="icon" d="M8 20H5a1 1 0 0 1-1-1v-3"/>
      <path class="icon" d="M7 12h10"/>
    </symbol>
    <symbol id="i-home" viewBox="0 0 24 24">
      <path class="icon" d="m3 11 9-8 9 8"/>
      <path class="icon" d="M5 10v10h14V10"/>
      <path class="icon" d="M10 20v-6h4v6"/>
    </symbol>
    <symbol id="i-chat" viewBox="0 0 24 24">
      <path class="icon" d="M21 12a8 8 0 0 1-8 8H6l-3 2 1.1-4.2A8 8 0 1 1 21 12Z"/>
    </symbol>
    <symbol id="i-play" viewBox="0 0 24 24">
      <path class="icon" d="M8 5v14l11-7-11-7Z"/>
    </symbol>
    <symbol id="i-plus" viewBox="0 0 24 24">
      <path class="icon" d="M12 5v14M5 12h14"/>
    </symbol>
    <symbol id="i-chevron" viewBox="0 0 24 24">
      <path class="icon" d="m9 6 6 6-6 6"/>
    </symbol>
  </defs>

  <rect width="1510" height="1250" rx="24" fill="#1D1E26"/>
  <rect x="24" y="24" width="1462" height="1202" rx="24" fill="#282A36" stroke="#44475A"/>

  <text x="56" y="74" class="title">Mana Grimoire - opcoes de interface mobile</text>
  <text x="56" y="102" class="subtitle">Tres caminhos visuais para o MVP Flutter: navegacao por bottom bar, conteudo offline-first, scan rapido e colecao/decks com alta densidade sem perder legibilidade.</text>

  <g transform="translate(56 146)">
    <rect width="428" height="96" rx="18" fill="#303241" stroke="#44475A"/>
    <text x="20" y="29" class="label">OPCAO A</text>
    <text x="20" y="56" class="h2">Hub do Grimorio</text>
    <text x="20" y="78" class="body">MVP geral: busca global, atalhos principais</text>
    <text x="20" y="96" class="body">e atividade social em uma tela escaneavel.</text>
  </g>
  <g transform="translate(541 146)">
    <rect width="428" height="96" rx="18" fill="#303241" stroke="#44475A"/>
    <text x="20" y="29" class="label" fill="#8BE9FD">OPCAO B</text>
    <text x="20" y="56" class="h2">Colecao Pro</text>
    <text x="20" y="78" class="body">Usuarios power: filtros persistentes, listas densas,</text>
    <text x="20" y="96" class="body">inventario, decks e sinais de troca.</text>
  </g>
  <g transform="translate(1026 146)">
    <rect width="428" height="96" rx="18" fill="#303241" stroke="#44475A"/>
    <text x="20" y="29" class="label" fill="#FF79C6">OPCAO C</text>
    <text x="20" y="56" class="h2">Scan First</text>
    <text x="20" y="78" class="body">Entrada rapida em loja/mesa: camera principal,</text>
    <text x="20" y="96" class="body">buffer confirmavel e catalogo local.</text>
  </g>

  <!-- Option A phone -->
  <g transform="translate(75 280)">
    <rect width="390" height="844" rx="42" fill="#11121A"/>
    <rect x="10" y="10" width="370" height="824" rx="34" fill="#282A36"/>
    <rect x="162" y="22" width="66" height="6" rx="3" fill="#44475A"/>
    <text x="28" y="47" class="small">9:41</text>
    <circle cx="333" cy="42" r="3" fill="#F8F8F2"/>
    <circle cx="345" cy="42" r="3" fill="#F8F8F2"/>
    <circle cx="357" cy="42" r="3" fill="#F8F8F2"/>

    <text x="24" y="92" class="body">Boa noite, Gilberto</text>
    <text x="24" y="123" class="h1">Mana Grimoire</text>
    <rect x="322" y="82" width="44" height="44" rx="14" fill="#44475A" stroke="#6272A4" stroke-opacity=".45"/>
    <g transform="translate(332 92)" style="color:#BD93F9"><use href="#i-bell" width="24" height="24"/></g>

    <rect x="24" y="146" width="342" height="48" rx="16" fill="#44475A" stroke="#6272A4" stroke-opacity=".45"/>
    <g transform="translate(40 158)" style="color:#8BE9FD"><use href="#i-search" width="22" height="22"/></g>
    <text x="72" y="176" class="body">Buscar cartas, decks ou jogadores...</text>

    <text x="24" y="229" class="h2">Resumo</text>
    <rect x="24" y="246" width="104" height="86" rx="16" fill="#3A3D4F" stroke="#6272A4" stroke-opacity=".28"/>
    <text x="40" y="280" class="metric">1.248</text>
    <text x="40" y="305" class="small">cartas</text>
    <rect x="143" y="246" width="104" height="86" rx="16" fill="#3A3D4F" stroke="#6272A4" stroke-opacity=".28"/>
    <text x="159" y="280" class="metric" fill="#8BE9FD">12</text>
    <text x="159" y="305" class="small">decks</text>
    <rect x="262" y="246" width="104" height="86" rx="16" fill="#3A3D4F" stroke="#6272A4" stroke-opacity=".28"/>
    <text x="278" y="280" class="metric" fill="#FF79C6">4,8k</text>
    <text x="278" y="305" class="small">valor BRL</text>

    <text x="24" y="371" class="h2">Acoes rapidas</text>
    <rect x="24" y="389" width="162" height="86" rx="18" fill="#44475A" stroke="#BD93F9" stroke-opacity=".26"/>
    <rect x="40" y="407" width="38" height="38" rx="12" fill="#BD93F9" fill-opacity=".18"/>
    <g transform="translate(48 415)" style="color:#BD93F9"><use href="#i-book" width="22" height="22"/></g>
    <text x="92" y="424" class="h3">Colecoes</text>
    <text x="92" y="445" class="small">organizar binder</text>
    <rect x="204" y="389" width="162" height="86" rx="18" fill="#44475A" stroke="#8BE9FD" stroke-opacity=".26"/>
    <rect x="220" y="407" width="38" height="38" rx="12" fill="#8BE9FD" fill-opacity=".16"/>
    <g transform="translate(228 415)" style="color:#8BE9FD"><use href="#i-cards" width="22" height="22"/></g>
    <text x="272" y="424" class="h3">Decks</text>
    <text x="272" y="445" class="small">12 listas</text>
    <rect x="24" y="489" width="162" height="86" rx="18" fill="#44475A" stroke="#50FA7B" stroke-opacity=".26"/>
    <rect x="40" y="507" width="38" height="38" rx="12" fill="#50FA7B" fill-opacity=".15"/>
    <g transform="translate(48 515)" style="color:#50FA7B"><use href="#i-scan" width="22" height="22"/></g>
    <text x="92" y="524" class="h3">Scan</text>
    <text x="92" y="545" class="small">catalogo pronto</text>
    <rect x="204" y="489" width="162" height="86" rx="18" fill="#44475A" stroke="#F1FA8C" stroke-opacity=".24"/>
    <rect x="220" y="507" width="38" height="38" rx="12" fill="#F1FA8C" fill-opacity=".15"/>
    <g transform="translate(228 515)" style="color:#F1FA8C"><use href="#i-play" width="22" height="22"/></g>
    <text x="272" y="524" class="h3">Jogar</text>
    <text x="272" y="545" class="small">Commander</text>

    <text x="24" y="617" class="h2">Mensagens e trocas</text>
    <rect x="24" y="637" width="342" height="64" rx="16" fill="#3A3D4F" stroke="#6272A4" stroke-opacity=".25"/>
    <circle cx="54" cy="669" r="19" fill="#FF79C6" fill-opacity=".22"/>
    <text x="48" y="674" class="h3" fill="#FF79C6">P</text>
    <text x="83" y="661" class="h3">Pedro quer trocar contigo</text>
    <text x="83" y="682" class="small">Rhystic Study NM · ha 2 h</text>
    <g transform="translate(338 657)" style="color:#6272A4"><use href="#i-chevron" width="20" height="20"/></g>
    <rect x="24" y="711" width="342" height="54" rx="16" fill="#3A3D4F" stroke="#6272A4" stroke-opacity=".25"/>
    <circle cx="54" cy="738" r="17" fill="#8BE9FD" fill-opacity=".18"/>
    <g transform="translate(44 728)" style="color:#8BE9FD"><use href="#i-chat" width="20" height="20"/></g>
    <text x="83" y="735" class="h3">Nova mensagem sobre Sol Ring</text>
    <text x="83" y="754" class="small">Grupo Commander SP</text>

    <rect x="10" y="762" width="370" height="72" rx="0" fill="#44475A"/>
    <g transform="translate(33 777)" style="color:#B8B9C8"><use href="#i-book" width="22" height="22"/></g>
    <text x="24" y="816" class="tiny">Colecoes</text>
    <g transform="translate(111 777)" style="color:#B8B9C8"><use href="#i-scan" width="22" height="22"/></g>
    <text x="107" y="816" class="tiny">Scan</text>
    <circle cx="195" cy="788" r="22" fill="#BD93F9" fill-opacity=".24" stroke="#BD93F9"/>
    <g transform="translate(184 777)" style="color:#BD93F9"><use href="#i-home" width="22" height="22"/></g>
    <text x="181" y="816" class="tiny" fill="#BD93F9">Inicio</text>
    <g transform="translate(257 777)" style="color:#B8B9C8"><use href="#i-chat" width="22" height="22"/></g>
    <text x="253" y="816" class="tiny">Chat</text>
    <g transform="translate(335 777)" style="color:#B8B9C8"><use href="#i-play" width="22" height="22"/></g>
    <text x="333" y="816" class="tiny">Jogar</text>
  </g>

  <!-- Option B phone -->
  <g transform="translate(560 280)">
    <rect width="390" height="844" rx="42" fill="#11121A"/>
    <rect x="10" y="10" width="370" height="824" rx="34" fill="#282A36"/>
    <rect x="162" y="22" width="66" height="6" rx="3" fill="#44475A"/>
    <text x="28" y="47" class="small">9:41</text>
    <circle cx="333" cy="42" r="3" fill="#F8F8F2"/>
    <circle cx="345" cy="42" r="3" fill="#F8F8F2"/>
    <circle cx="357" cy="42" r="3" fill="#F8F8F2"/>

    <text x="24" y="94" class="h1">Colecao</text>
    <rect x="278" y="72" width="40" height="40" rx="13" fill="#44475A" stroke="#6272A4" stroke-opacity=".35"/>
    <g transform="translate(287 81)" style="color:#8BE9FD"><use href="#i-search" width="22" height="22"/></g>
    <rect x="326" y="72" width="40" height="40" rx="13" fill="#BD93F9"/>
    <g transform="translate(335 81)" style="color:#282A36"><use href="#i-plus" width="22" height="22"/></g>

    <rect x="24" y="128" width="342" height="44" rx="16" fill="#303241" stroke="#6272A4" stroke-opacity=".28"/>
    <rect x="29" y="133" width="108" height="34" rx="12" fill="#8BE9FD" fill-opacity=".22" stroke="#8BE9FD" stroke-opacity=".45"/>
    <text x="61" y="155" class="small" fill="#8BE9FD">Cartas</text>
    <text x="169" y="155" class="small">Decks</text>
    <text x="278" y="155" class="small">Trocas</text>

    <g transform="translate(24 193)">
      <rect width="68" height="30" rx="10" fill="#44475A" stroke="#8BE9FD" stroke-opacity=".35"/>
      <text x="16" y="20" class="small" fill="#8BE9FD">Todas</text>
      <rect x="78" width="94" height="30" rx="10" fill="#3A3D4F"/>
      <text x="94" y="20" class="small">Commander</text>
      <rect x="182" width="74" height="30" rx="10" fill="#3A3D4F"/>
      <text x="198" y="20" class="small">Faltam</text>
      <rect x="266" width="76" height="30" rx="10" fill="#3A3D4F"/>
      <text x="282" y="20" class="small">Troca</text>
    </g>

    <rect x="24" y="246" width="342" height="92" rx="20" fill="#3A3D4F" stroke="#6272A4" stroke-opacity=".25"/>
    <text x="44" y="276" class="small">Inventario ativo</text>
    <text x="44" y="309" class="metric">1.248</text>
    <text x="130" y="309" class="small">cartas em 6 colecoes</text>
    <rect x="246" y="268" width="96" height="44" rx="13" fill="#50FA7B" fill-opacity=".14" stroke="#50FA7B" stroke-opacity=".35"/>
    <text x="263" y="294" class="small" fill="#50FA7B">+24 semana</text>

    <text x="24" y="378" class="h2">Prioridade de decks</text>
    <rect x="24" y="397" width="342" height="92" rx="18" fill="#44475A" stroke="#BD93F9" stroke-opacity=".24"/>
    <rect x="40" y="413" width="48" height="62" rx="7" fill="url(#artPurple)" stroke="#F8F8F2" stroke-opacity=".15"/>
    <text x="104" y="422" class="h3">Esper Control</text>
    <text x="104" y="444" class="small">Commander · 97/100 cartas</text>
    <rect x="104" y="460" width="184" height="8" rx="4" fill="#303241"/>
    <rect x="104" y="460" width="154" height="8" rx="4" fill="#BD93F9"/>
    <rect x="295" y="421" width="52" height="26" rx="9" fill="#FF5555" fill-opacity=".18"/>
    <text x="309" y="438" class="tiny" fill="#FF5555">3 faltam</text>

    <text x="24" y="528" class="h2">Cartas recentes</text>
    <rect x="24" y="547" width="342" height="74" rx="18" fill="#3A3D4F" stroke="#6272A4" stroke-opacity=".22"/>
    <rect x="40" y="559" width="40" height="52" rx="6" fill="url(#artCyan)"/>
    <text x="96" y="572" class="h3">Sol Ring</text>
    <text x="96" y="594" class="small">Commander Masters · NM</text>
    <rect x="279" y="568" width="56" height="26" rx="9" fill="#8BE9FD" fill-opacity=".16"/>
    <text x="296" y="585" class="tiny" fill="#8BE9FD">x4</text>
    <rect x="24" y="631" width="342" height="74" rx="18" fill="#3A3D4F" stroke="#6272A4" stroke-opacity=".22"/>
    <rect x="40" y="643" width="40" height="52" rx="6" fill="url(#artRed)"/>
    <text x="96" y="656" class="h3">Dockside Extortionist</text>
    <text x="96" y="678" class="small">Double Masters · LP</text>
    <rect x="263" y="652" width="72" height="26" rx="9" fill="#FF79C6" fill-opacity=".16"/>
    <text x="277" y="669" class="tiny" fill="#FF79C6">troca</text>
    <rect x="24" y="715" width="342" height="50" rx="16" fill="#303241" stroke="#6272A4" stroke-opacity=".2"/>
    <text x="44" y="746" class="small">Ver todos os 1.248 registros</text>
    <g transform="translate(334 728)" style="color:#6272A4"><use href="#i-chevron" width="20" height="20"/></g>

    <circle cx="326" cy="720" r="26" fill="#BD93F9"/>
    <g transform="translate(314 708)" style="color:#282A36"><use href="#i-plus" width="24" height="24"/></g>

    <rect x="10" y="762" width="370" height="72" rx="0" fill="#44475A"/>
    <circle cx="44" cy="788" r="20" fill="#BD93F9" fill-opacity=".22" stroke="#BD93F9"/>
    <g transform="translate(33 777)" style="color:#BD93F9"><use href="#i-book" width="22" height="22"/></g>
    <text x="24" y="816" class="tiny" fill="#BD93F9">Colecoes</text>
    <g transform="translate(111 777)" style="color:#B8B9C8"><use href="#i-scan" width="22" height="22"/></g>
    <text x="107" y="816" class="tiny">Scan</text>
    <g transform="translate(184 777)" style="color:#B8B9C8"><use href="#i-home" width="22" height="22"/></g>
    <text x="181" y="816" class="tiny">Inicio</text>
    <g transform="translate(257 777)" style="color:#B8B9C8"><use href="#i-chat" width="22" height="22"/></g>
    <text x="253" y="816" class="tiny">Chat</text>
    <g transform="translate(335 777)" style="color:#B8B9C8"><use href="#i-play" width="22" height="22"/></g>
    <text x="333" y="816" class="tiny">Jogar</text>
  </g>

  <!-- Option C phone -->
  <g transform="translate(1045 280)">
    <rect width="390" height="844" rx="42" fill="#11121A"/>
    <rect x="10" y="10" width="370" height="824" rx="34" fill="#282A36"/>
    <rect x="162" y="22" width="66" height="6" rx="3" fill="#44475A"/>
    <text x="28" y="47" class="small">9:41</text>
    <circle cx="333" cy="42" r="3" fill="#F8F8F2"/>
    <circle cx="345" cy="42" r="3" fill="#F8F8F2"/>
    <circle cx="357" cy="42" r="3" fill="#F8F8F2"/>

    <text x="24" y="94" class="h1">Scan continuo</text>
    <rect x="282" y="72" width="84" height="32" rx="12" fill="#50FA7B" fill-opacity=".14" stroke="#50FA7B" stroke-opacity=".35"/>
    <text x="301" y="92" class="tiny" fill="#50FA7B">offline ok</text>

    <rect x="24" y="125" width="342" height="438" rx="24" fill="#11121A" stroke="#6272A4" stroke-opacity=".35"/>
    <rect x="42" y="143" width="306" height="402" rx="19" fill="#303241"/>
    <rect x="96" y="190" width="198" height="282" rx="18" fill="url(#artCyan)" opacity=".88"/>
    <rect x="122" y="224" width="146" height="198" rx="12" fill="#282A36" fill-opacity=".58" stroke="#F8F8F2" stroke-opacity=".22"/>
    <path d="M72 182v-24h24M318 182v-24h-24M72 494v24h24M318 494v24h-24" stroke="#8BE9FD" stroke-width="4" stroke-linecap="round"/>
    <rect x="92" y="486" width="206" height="42" rx="14" fill="#282A36" fill-opacity=".86" stroke="#8BE9FD" stroke-opacity=".4"/>
    <text x="113" y="512" class="h3">Sol Ring identificado</text>
    <rect x="246" y="496" width="38" height="20" rx="8" fill="#50FA7B" fill-opacity=".17"/>
    <text x="256" y="510" class="tiny" fill="#50FA7B">91%</text>

    <rect x="24" y="583" width="342" height="58" rx="18" fill="#3A3D4F" stroke="#6272A4" stroke-opacity=".25"/>
    <circle cx="52" cy="612" r="15" fill="#8BE9FD" fill-opacity=".2"/>
    <g transform="translate(43 603)" style="color:#8BE9FD"><use href="#i-scan" width="18" height="18"/></g>
    <text x="78" y="605" class="h3">Catalogo local pronto</text>
    <text x="78" y="625" class="small">452k nomes indexados · OCR ativo</text>

    <rect x="24" y="660" width="342" height="106" rx="24" fill="#44475A" stroke="#6272A4" stroke-opacity=".28"/>
    <rect x="158" y="672" width="74" height="5" rx="3" fill="#6272A4"/>
    <text x="44" y="701" class="h2">Buffer da sessao</text>
    <rect x="44" y="718" width="42" height="28" rx="10" fill="#BD93F9" fill-opacity=".18"/>
    <text x="59" y="737" class="small" fill="#BD93F9">x3</text>
    <text x="98" y="733" class="h3">7 cartas para adicionar</text>
    <rect x="252" y="710" width="92" height="38" rx="14" fill="#BD93F9"/>
    <text x="273" y="733" class="small" fill="#282A36">Adicionar</text>

    <rect x="10" y="762" width="370" height="72" rx="0" fill="#44475A"/>
    <g transform="translate(33 777)" style="color:#B8B9C8"><use href="#i-book" width="22" height="22"/></g>
    <text x="24" y="816" class="tiny">Colecoes</text>
    <circle cx="122" cy="788" r="20" fill="#50FA7B" fill-opacity=".2" stroke="#50FA7B"/>
    <g transform="translate(111 777)" style="color:#50FA7B"><use href="#i-scan" width="22" height="22"/></g>
    <text x="107" y="816" class="tiny" fill="#50FA7B">Scan</text>
    <g transform="translate(184 777)" style="color:#B8B9C8"><use href="#i-home" width="22" height="22"/></g>
    <text x="181" y="816" class="tiny">Inicio</text>
    <g transform="translate(257 777)" style="color:#B8B9C8"><use href="#i-chat" width="22" height="22"/></g>
    <text x="253" y="816" class="tiny">Chat</text>
    <g transform="translate(335 777)" style="color:#B8B9C8"><use href="#i-play" width="22" height="22"/></g>
    <text x="333" y="816" class="tiny">Jogar</text>
  </g>

  <g transform="translate(56 1140)">
    <rect width="1398" height="82" rx="18" fill="#303241" stroke="#44475A"/>
    <text x="24" y="29" class="h2">Recomendacao de especialista</text>
    <text x="24" y="52" class="body">Comece pela Opcao A para reduzir friccao no onboarding e reaproveite os padroes da Opcao B em telas internas.</text>
    <text x="24" y="70" class="body">A Opcao C deve virar fluxo dedicado com buffer persistente, estados de erro, permissao de camera e confirmacao clara.</text>
  </g>
</svg>
